<svg width="354" height="364" viewBox="0 0 354 364" fill="none" xmlns="http://www.w3.org/2000/svg">
<g clip-path="url(#clip0_0_948)">
<rect width="354" height="364" rx="8" fill="#755CDE"/>
<rect x="202" y="24" width="64" height="128" fill="#552049"/>
<circle cx="234" cy="56" r="14" stroke="#FFF7F0" stroke-width="4"/>
<rect x="266" y="56" width="64" height="32" rx="16" fill="#F6A560"/>
<path fill-rule="evenodd" clip-rule="evenodd" d="M234 184L266 216V184H234Z" fill="#61C4B7"/>
<path fill-rule="evenodd" clip-rule="evenodd" d="M266 152L298 184V152H266Z" fill="#61C4B7"/>
<circle cx="314" cy="72" r="14" stroke="#FFF7F0" stroke-width="4"/>
<circle cx="314" cy="72" r="14" stroke="#FFF7F0" stroke-width="4"/>
<rect x="266" y="38" width="4" height="4" fill="#030303"/>
<rect x="270" y="38" width="4" height="4" fill="#030303"/>
<rect x="294" y="38" width="4" height="4" fill="#030303"/>
<path fill-rule="evenodd" clip-rule="evenodd" d="M298 24L330 56V24H298Z" fill="#755CDE"/>
<rect x="298" y="38" width="4" height="4" fill="#030303"/>
<rect x="322" y="38" width="4" height="4" fill="#030303"/>
<rect x="326" y="38" width="4" height="4" fill="#030303"/>
<circle cx="282" cy="104" r="14" stroke="#030303" stroke-width="4"/>
<rect x="298" y="88" width="32" height="32" fill="#EB7565"/>
<path fill-rule="evenodd" clip-rule="evenodd" d="M234 120L330 216V120H234Z" fill="#FFF7F0"/>
<rect x="202" y="152" width="4" height="4" fill="#030303"/>
<rect x="216" y="152" width="4" height="4" fill="#030303"/>
<rect x="230" y="152" width="4" height="4" fill="#030303"/>
<rect x="202" y="166" width="4" height="4" fill="#030303"/>
<rect x="216" y="166" width="4" height="4" fill="#030303"/>
<rect x="230" y="166" width="4" height="4" fill="#030303"/>
<rect x="202" y="180" width="4" height="4" fill="#030303"/>
<rect x="216" y="180" width="4" height="4" fill="#030303"/>
<rect x="230" y="180" width="4" height="4" fill="#030303"/>
<path d="M34.2 335.288C32.92 335.288 31.736 335.056 30.648 334.592C29.56 334.128 28.608 333.48 27.792 332.648C26.976 331.816 26.336 330.84 25.872 329.72C25.424 328.6 25.2 327.376 25.2 326.048C25.2 324.72 25.416 323.496 25.848 322.376C26.296 321.24 26.92 320.264 27.72 319.448C28.536 318.616 29.488 317.976 30.576 317.528C31.664 317.064 32.848 316.832 34.128 316.832C35.408 316.832 36.552 317.048 37.56 317.48C38.584 317.912 39.448 318.488 40.152 319.208C40.856 319.912 41.36 320.688 41.664 321.536L38.76 322.928C38.424 322 37.856 321.248 37.056 320.672C36.256 320.096 35.28 319.808 34.128 319.808C33.008 319.808 32.016 320.072 31.152 320.6C30.304 321.128 29.64 321.856 29.16 322.784C28.696 323.712 28.464 324.8 28.464 326.048C28.464 327.296 28.704 328.392 29.184 329.336C29.68 330.264 30.36 330.992 31.224 331.52C32.088 332.048 33.08 332.312 34.2 332.312C35.112 332.312 35.952 332.136 36.72 331.784C37.488 331.416 38.104 330.904 38.568 330.248C39.032 329.576 39.264 328.784 39.264 327.872V326.504L40.752 327.8H34.128V325.04H42.528V326.84C42.528 328.216 42.296 329.432 41.832 330.488C41.368 331.544 40.736 332.432 39.936 333.152C39.152 333.856 38.264 334.392 37.272 334.76C36.28 335.112 35.256 335.288 34.2 335.288ZM44.8468 335V321.944H47.7988V324.848L47.5588 324.416C47.8628 323.44 48.3348 322.76 48.9748 322.376C49.6308 321.992 50.4148 321.8 51.3268 321.8H52.0948V324.584H50.9668C50.0708 324.584 49.3508 324.864 48.8068 325.424C48.2628 325.968 47.9908 326.736 47.9908 327.728V335H44.8468ZM57.7834 335.288C56.8714 335.288 56.0794 335.136 55.4074 334.832C54.7354 334.528 54.2154 334.096 53.8474 333.536C53.4794 332.96 53.2954 332.296 53.2954 331.544C53.2954 330.824 53.4554 330.184 53.7754 329.624C54.0954 329.048 54.5914 328.568 55.2634 328.184C55.9354 327.8 56.7834 327.528 57.8074 327.368L62.0794 326.672V329.072L58.4074 329.696C57.7834 329.808 57.3194 330.008 57.0154 330.296C56.7114 330.584 56.5594 330.96 56.5594 331.424C56.5594 331.872 56.7274 332.232 57.0634 332.504C57.4154 332.76 57.8474 332.888 58.3594 332.888C59.0154 332.888 59.5914 332.752 60.0874 332.48C60.5994 332.192 60.9914 331.8 61.2634 331.304C61.5514 330.808 61.6954 330.264 61.6954 329.672V326.312C61.6954 325.752 61.4714 325.288 61.0234 324.92C60.5914 324.536 60.0154 324.344 59.2954 324.344C58.6234 324.344 58.0234 324.528 57.4954 324.896C56.9834 325.248 56.6074 325.72 56.3674 326.312L53.7994 325.064C54.0554 324.376 54.4554 323.784 54.9994 323.288C55.5594 322.776 56.2154 322.376 56.9674 322.088C57.7194 321.8 58.5354 321.656 59.4154 321.656C60.4874 321.656 61.4314 321.856 62.2474 322.256C63.0634 322.64 63.6954 323.184 64.1434 323.888C64.6074 324.576 64.8394 325.384 64.8394 326.312V335H61.8634V332.768L62.5354 332.72C62.1994 333.28 61.7994 333.752 61.3354 334.136C60.8714 334.504 60.3434 334.792 59.7514 335C59.1594 335.192 58.5034 335.288 57.7834 335.288ZM67.7453 339.8V321.944H70.6973V324.536L70.4093 323.888C70.8573 323.184 71.4653 322.64 72.2333 322.256C73.0013 321.856 73.8893 321.656 74.8973 321.656C76.1293 321.656 77.2413 321.96 78.2333 322.568C79.2253 323.176 80.0093 323.992 80.5853 325.016C81.1773 326.04 81.4733 327.192 81.4733 328.472C81.4733 329.736 81.1853 330.888 80.6093 331.928C80.0333 332.968 79.2493 333.792 78.2573 334.4C77.2653 334.992 76.1373 335.288 74.8733 335.288C73.9293 335.288 73.0573 335.104 72.2573 334.736C71.4733 334.352 70.8493 333.808 70.3853 333.104L70.8893 332.48V339.8H67.7453ZM74.5133 332.408C75.2333 332.408 75.8733 332.24 76.4333 331.904C76.9933 331.568 77.4253 331.104 77.7293 330.512C78.0493 329.92 78.2093 329.24 78.2093 328.472C78.2093 327.704 78.0493 327.032 77.7293 326.456C77.4253 325.864 76.9933 325.4 76.4333 325.064C75.8733 324.712 75.2333 324.536 74.5133 324.536C73.8253 324.536 73.2013 324.704 72.6413 325.04C72.0973 325.376 71.6653 325.848 71.3453 326.456C71.0413 327.048 70.8893 327.72 70.8893 328.472C70.8893 329.24 71.0413 329.92 71.3453 330.512C71.6653 331.104 72.0973 331.568 72.6413 331.904C73.2013 332.24 73.8253 332.408 74.5133 332.408ZM83.8703 335V316.832H87.0143V324.512L86.5823 324.056C86.8863 323.272 87.3823 322.68 88.0703 322.28C88.7743 321.864 89.5903 321.656 90.5183 321.656C91.4783 321.656 92.3263 321.864 93.0623 322.28C93.8143 322.696 94.3983 323.28 94.8143 324.032C95.2303 324.768 95.4383 325.624 95.4383 326.6V335H92.2943V327.344C92.2943 326.768 92.1823 326.272 91.9583 325.856C91.7343 325.44 91.4223 325.12 91.0223 324.896C90.6383 324.656 90.1823 324.536 89.6543 324.536C89.1423 324.536 88.6863 324.656 88.2863 324.896C87.8863 325.12 87.5743 325.44 87.3503 325.856C87.1263 326.272 87.0143 326.768 87.0143 327.344V335H83.8703ZM98.0968 335V321.944H101.241V335H98.0968ZM98.0968 320.48V317.12H101.241V320.48H98.0968ZM110.432 335.288C109.136 335.288 107.968 334.992 106.928 334.4C105.904 333.792 105.096 332.976 104.504 331.952C103.912 330.912 103.616 329.744 103.616 328.448C103.616 327.152 103.912 325.992 104.504 324.968C105.096 323.944 105.904 323.136 106.928 322.544C107.968 321.952 109.136 321.656 110.432 321.656C111.36 321.656 112.224 321.824 113.024 322.16C113.824 322.48 114.512 322.928 115.088 323.504C115.68 324.064 116.104 324.736 116.36 325.52L113.6 326.72C113.36 326.064 112.952 325.536 112.376 325.136C111.816 324.736 111.168 324.536 110.432 324.536C109.744 324.536 109.128 324.704 108.584 325.04C108.056 325.376 107.64 325.84 107.336 326.432C107.032 327.024 106.88 327.704 106.88 328.472C106.88 329.24 107.032 329.92 107.336 330.512C107.64 331.104 108.056 331.568 108.584 331.904C109.128 332.24 109.744 332.408 110.432 332.408C111.184 332.408 111.84 332.208 112.4 331.808C112.96 331.408 113.36 330.872 113.6 330.2L116.36 331.448C116.104 332.184 115.688 332.848 115.112 333.44C114.536 334.016 113.848 334.472 113.048 334.808C112.248 335.128 111.376 335.288 110.432 335.288ZM123.275 335V317.12H129.107C130.995 317.12 132.635 317.504 134.027 318.272C135.435 319.024 136.523 320.072 137.291 321.416C138.059 322.744 138.443 324.288 138.443 326.048C138.443 327.792 138.059 329.344 137.291 330.704C136.523 332.048 135.435 333.104 134.027 333.872C132.635 334.624 130.995 335 129.107 335H123.275ZM126.539 332.12H129.179C130.395 332.12 131.443 331.872 132.323 331.376C133.219 330.864 133.915 330.16 134.411 329.264C134.907 328.352 135.155 327.28 135.155 326.048C135.155 324.8 134.907 323.728 134.411 322.832C133.915 321.936 133.219 321.24 132.323 320.744C131.443 320.248 130.395 320 129.179 320H126.539V332.12ZM146.969 335.288C145.625 335.288 144.449 334.984 143.441 334.376C142.433 333.768 141.649 332.944 141.089 331.904C140.529 330.864 140.249 329.712 140.249 328.448C140.249 327.136 140.529 325.976 141.089 324.968C141.665 323.944 142.441 323.136 143.417 322.544C144.409 321.952 145.513 321.656 146.729 321.656C147.753 321.656 148.649 321.824 149.417 322.16C150.201 322.496 150.865 322.96 151.409 323.552C151.953 324.144 152.369 324.824 152.657 325.592C152.945 326.344 153.089 327.16 153.089 328.04C153.089 328.264 153.073 328.496 153.041 328.736C153.025 328.976 152.985 329.184 152.921 329.36H142.84V326.96H151.145L149.657 328.088C149.801 327.352 149.761 326.696 149.537 326.12C149.329 325.544 148.977 325.088 148.481 324.752C148.001 324.416 147.417 324.248 146.729 324.248C146.073 324.248 145.489 324.416 144.977 324.752C144.465 325.072 144.073 325.552 143.801 326.192C143.545 326.816 143.449 327.576 143.513 328.472C143.449 329.272 143.553 329.984 143.825 330.608C144.113 331.216 144.529 331.688 145.073 332.024C145.633 332.36 146.273 332.528 146.993 332.528C147.713 332.528 148.321 332.376 148.817 332.072C149.329 331.768 149.729 331.36 150.017 330.848L152.561 332.096C152.305 332.72 151.905 333.272 151.361 333.752C150.817 334.232 150.169 334.608 149.417 334.88C148.681 335.152 147.865 335.288 146.969 335.288ZM160.44 335.288C159.048 335.288 157.832 334.96 156.792 334.304C155.768 333.632 155.064 332.728 154.68 331.592L157.032 330.464C157.368 331.2 157.832 331.776 158.424 332.192C159.032 332.608 159.704 332.816 160.44 332.816C161.016 332.816 161.472 332.688 161.808 332.432C162.144 332.176 162.312 331.84 162.312 331.424C162.312 331.168 162.24 330.96 162.096 330.8C161.968 330.624 161.784 330.48 161.544 330.368C161.32 330.24 161.072 330.136 160.8 330.056L158.664 329.456C157.56 329.136 156.72 328.648 156.144 327.992C155.584 327.336 155.304 326.56 155.304 325.664C155.304 324.864 155.504 324.168 155.904 323.576C156.32 322.968 156.888 322.496 157.608 322.16C158.344 321.824 159.184 321.656 160.128 321.656C161.36 321.656 162.448 321.952 163.392 322.544C164.336 323.136 165.008 323.968 165.408 325.04L163.008 326.168C162.784 325.576 162.408 325.104 161.88 324.752C161.352 324.4 160.76 324.224 160.104 324.224C159.576 324.224 159.16 324.344 158.856 324.584C158.552 324.824 158.4 325.136 158.4 325.52C158.4 325.76 158.464 325.968 158.592 326.144C158.72 326.32 158.896 326.464 159.12 326.576C159.36 326.688 159.632 326.792 159.936 326.888L162.024 327.512C163.096 327.832 163.92 328.312 164.496 328.952C165.088 329.592 165.384 330.376 165.384 331.304C165.384 332.088 165.176 332.784 164.76 333.392C164.344 333.984 163.768 334.448 163.032 334.784C162.296 335.12 161.432 335.288 160.44 335.288ZM167.8 335V321.944H170.944V335H167.8ZM167.8 320.48V317.12H170.944V320.48H167.8ZM180.183 340.28C179.207 340.28 178.303 340.12 177.471 339.8C176.639 339.48 175.919 339.032 175.311 338.456C174.719 337.896 174.287 337.232 174.015 336.464L176.943 335.36C177.135 335.968 177.511 336.456 178.071 336.824C178.647 337.208 179.351 337.4 180.183 337.4C180.823 337.4 181.383 337.28 181.863 337.04C182.359 336.8 182.743 336.448 183.015 335.984C183.287 335.536 183.423 334.992 183.423 334.352V331.376L184.023 332.096C183.575 332.88 182.975 333.472 182.223 333.872C181.471 334.272 180.615 334.472 179.655 334.472C178.439 334.472 177.351 334.192 176.391 333.632C175.431 333.072 174.679 332.304 174.135 331.328C173.591 330.352 173.319 329.256 173.319 328.04C173.319 326.808 173.591 325.712 174.135 324.752C174.679 323.792 175.423 323.04 176.367 322.496C177.311 321.936 178.383 321.656 179.583 321.656C180.559 321.656 181.415 321.864 182.151 322.28C182.903 322.68 183.527 323.264 184.023 324.032L183.591 324.824V321.944H186.567V334.352C186.567 335.488 186.287 336.504 185.727 337.4C185.183 338.296 184.431 339 183.471 339.512C182.527 340.024 181.431 340.28 180.183 340.28ZM180.039 331.568C180.711 331.568 181.295 331.424 181.791 331.136C182.303 330.832 182.703 330.416 182.991 329.888C183.279 329.36 183.423 328.752 183.423 328.064C183.423 327.392 183.271 326.792 182.967 326.264C182.679 325.72 182.279 325.296 181.767 324.992C181.271 324.688 180.695 324.536 180.039 324.536C179.383 324.536 178.791 324.688 178.263 324.992C177.735 325.296 177.319 325.72 177.015 326.264C176.727 326.792 176.583 327.392 176.583 328.064C176.583 328.736 176.727 329.336 177.015 329.864C177.319 330.392 177.727 330.808 178.239 331.112C178.767 331.416 179.367 331.568 180.039 331.568ZM189.503 335V321.944H192.455V324.512L192.215 324.056C192.519 323.272 193.015 322.68 193.703 322.28C194.407 321.864 195.223 321.656 196.151 321.656C197.111 321.656 197.959 321.864 198.695 322.28C199.447 322.696 200.031 323.28 200.447 324.032C200.863 324.768 201.071 325.624 201.071 326.6V335H197.927V327.344C197.927 326.768 197.815 326.272 197.591 325.856C197.367 325.44 197.055 325.12 196.655 324.896C196.271 324.656 195.815 324.536 195.287 324.536C194.775 324.536 194.319 324.656 193.919 324.896C193.519 325.12 193.207 325.44 192.983 325.856C192.759 326.272 192.647 326.768 192.647 327.344V335H189.503Z" fill="white"/>
</g>
<defs>
<clipPath id="clip0_0_948">
<rect width="354" height="364" fill="white"/>
</clipPath>
</defs>
</svg>
